<svg width="321" height="182" viewBox="0 0 321 182" fill="none" xmlns="http://www.w3.org/2000/svg">
<path d="M198 95.5L189.5 76.5V60L188.5 48V43.5C188.5 43.5 195.494 50.5625 201.5 49C207.434 47.4562 211.5 41 212.5 37C213.5 33 213.086 29.2958 212.5 25L201 26C201 26 199.599 20.8745 197 18.5C194.201 15.9426 188.5 15.5 188.5 15.5C188.5 15.5 190.405 11.3415 190.5 8.5C190.607 5.28144 188.5 0.5 188.5 0.5C188.5 0.5 174.5 9.5 173 14C172.219 16.3431 173.5 19.5 173.5 19.5C173.5 19.5 171.99 22.6888 171 25.5C169.443 29.92 170.5 37 170.5 37C170.5 37 160.5 51 149 51C132.524 51 113.5 29.5 113.5 29.5C113.5 29.5 111.971 37.6338 114 42.5C116.511 48.5235 126.5 53.5 126.5 53.5L123 60L109 95.5H128.5C128.5 95.5 134.5 75.5 151.5 75.5C172 75.5 179 95.5 179 95.5H198Z" fill="#4E4E4E"/>
<path d="M168.5 41.5L189.5 49C189.5 49 192.282 57.1037 192.5 62.5C192.723 68.0183 190.5 76.5 190.5 76.5C190.5 76.5 175 69 168.5 60C164.912 55.032 162.5 45.5 162.5 45.5C162.5 45.5 159.5 49.3734 152.5 48C147 46.9209 143.5 41.5 143.5 41.5C143.5 41.5 149.82 38.13 154.5 38.5C159.18 38.87 162.5 40.5 162.5 40.5C162.5 40.5 161.899 36.7596 162 34C162.118 30.7818 163.5 26.5 163.5 26.5C163.5 26.5 165.765 28.5301 167 31C168.746 34.493 168.5 41.5 168.5 41.5Z" fill="#FFE4B8"/>
<mask id="mask0_1496_10439" style="mask-type:alpha" maskUnits="userSpaceOnUse" x="146" y="31" width="48" height="41">
<circle cx="176" cy="49" r="3" fill="#C4C4C4"/>
<circle cx="183" cy="52" r="3" fill="#C4C4C4"/>
<circle cx="185" cy="60" r="3" fill="#C4C4C4"/>
<circle cx="175" cy="58" r="3" fill="#C4C4C4"/>
<circle cx="168" cy="54" r="3" fill="#C4C4C4"/>
<circle cx="168" cy="45" r="3" fill="#C4C4C4"/>
<circle cx="162" cy="34" r="3" fill="#C4C4C4"/>
<circle cx="155" cy="40" r="3" fill="#C4C4C4"/>
<circle cx="149" cy="46" r="3" fill="#C4C4C4"/>
<circle cx="159" cy="47" r="3" fill="#C4C4C4"/>
<circle cx="176" cy="66" r="3" fill="#C4C4C4"/>
<circle cx="184" cy="69" r="3" fill="#C4C4C4"/>
<circle cx="191" cy="66" r="3" fill="#C4C4C4"/>
</mask>
<g mask="url(#mask0_1496_10439)">
<path d="M168.5 41.5L189.5 49C189.5 49 192.282 57.1037 192.5 62.5C192.723 68.0183 190.5 76.5 190.5 76.5C190.5 76.5 174.5 68.5 168.5 60C164.966 54.9934 162.5 45.5 162.5 45.5C162.5 45.5 159.5 49.3734 152.5 48C147 46.9209 143.5 41.5 143.5 41.5C143.5 41.5 149.82 38.13 154.5 38.5C159.18 38.87 162.5 40.5 162.5 40.5C162.5 40.5 161.899 36.7596 162 34C162.118 30.7818 163.5 26.5 163.5 26.5C163.5 26.5 165.765 28.5301 167 31C168.746 34.493 168.5 41.5 168.5 41.5Z" fill="#DEA13C"/>
</g>
<path d="M24.496 133.632H12.792L10.724 139H0.164L13.628 108.2H23.836L37.3 139H26.564L24.496 133.632ZM21.636 126.152L18.644 118.408L15.652 126.152H21.636ZM71.0772 139L70.9892 124.964L64.3012 136.228H59.7252L53.0372 125.448V139H43.5772V108.2H52.1132L62.1452 124.612L71.9132 108.2H80.4492L80.5372 139H71.0772ZM90.1777 108.2H100.562V139H90.1777V108.2ZM130.553 122.764H139.573V135.788C137.754 137.049 135.642 138.017 133.237 138.692C130.831 139.367 128.47 139.704 126.153 139.704C122.867 139.704 119.919 139.029 117.309 137.68C114.698 136.301 112.645 134.395 111.149 131.96C109.682 129.496 108.949 126.709 108.949 123.6C108.949 120.491 109.682 117.719 111.149 115.284C112.645 112.82 114.713 110.913 117.353 109.564C120.022 108.185 123.029 107.496 126.373 107.496C129.394 107.496 132.093 108.009 134.469 109.036C136.874 110.033 138.869 111.5 140.453 113.436L133.809 119.288C131.873 117.029 129.57 115.9 126.901 115.9C124.613 115.9 122.794 116.589 121.445 117.968C120.095 119.347 119.421 121.224 119.421 123.6C119.421 125.917 120.081 127.78 121.401 129.188C122.75 130.596 124.539 131.3 126.769 131.3C128.089 131.3 129.35 131.051 130.553 130.552V122.764ZM164.765 139.704C161.45 139.704 158.473 139.015 155.833 137.636C153.193 136.257 151.125 134.351 149.629 131.916C148.133 129.452 147.385 126.68 147.385 123.6C147.385 120.52 148.133 117.763 149.629 115.328C151.125 112.864 153.193 110.943 155.833 109.564C158.473 108.185 161.45 107.496 164.765 107.496C168.08 107.496 171.057 108.185 173.697 109.564C176.337 110.943 178.405 112.864 179.901 115.328C181.397 117.763 182.145 120.52 182.145 123.6C182.145 126.68 181.397 129.452 179.901 131.916C178.405 134.351 176.337 136.257 173.697 137.636C171.057 139.015 168.08 139.704 164.765 139.704ZM164.765 131.3C166.056 131.3 167.214 130.992 168.241 130.376C169.297 129.731 170.133 128.836 170.749 127.692C171.365 126.519 171.673 125.155 171.673 123.6C171.673 122.045 171.365 120.696 170.749 119.552C170.133 118.379 169.297 117.484 168.241 116.868C167.214 116.223 166.056 115.9 164.765 115.9C163.474 115.9 162.301 116.223 161.245 116.868C160.218 117.484 159.397 118.379 158.781 119.552C158.165 120.696 157.857 122.045 157.857 123.6C157.857 125.155 158.165 126.519 158.781 127.692C159.397 128.836 160.218 129.731 161.245 130.376C162.301 130.992 163.474 131.3 164.765 131.3ZM218.729 116.032V121.312H231.577V129.144H218.729V139H208.345V108.2H233.381V116.032H218.729ZM241.282 108.2H251.666V139H241.282V108.2ZM286.892 131.168V139H261.284V108.2H286.32V116.032H271.492V119.64H284.516V127.12H271.492V131.168H286.892ZM295.51 108.2H305.894V130.948H319.798V139H295.51V108.2Z" fill="#30B08B"/>
<path d="M97.36 159.2C98.88 159.2 100.2 159.456 101.32 159.968C102.44 160.464 103.304 161.184 103.912 162.128C104.52 163.056 104.824 164.152 104.824 165.416C104.824 166.68 104.52 167.776 103.912 168.704C103.304 169.632 102.44 170.352 101.32 170.864C100.2 171.36 98.88 171.608 97.36 171.608H94.432V176H89.68V159.2H97.36ZM97.072 167.864C98.048 167.864 98.784 167.656 99.28 167.24C99.776 166.808 100.024 166.2 100.024 165.416C100.024 164.632 99.776 164.024 99.28 163.592C98.784 163.16 98.048 162.944 97.072 162.944H94.432V167.864H97.072ZM123.149 172.328V176H109.661V159.2H122.837V162.872H114.365V165.704H121.829V169.256H114.365V172.328H123.149ZM131.882 162.968H126.722V159.2H141.77V162.968H136.634V176H131.882V162.968ZM161.469 176.336C160.109 176.336 158.789 176.168 157.509 175.832C156.229 175.496 155.189 175.048 154.389 174.488L155.949 170.984C156.701 171.48 157.573 171.88 158.565 172.184C159.557 172.488 160.533 172.64 161.493 172.64C163.317 172.64 164.229 172.184 164.229 171.272C164.229 170.792 163.965 170.44 163.437 170.216C162.925 169.976 162.093 169.728 160.941 169.472C159.677 169.2 158.621 168.912 157.773 168.608C156.925 168.288 156.197 167.784 155.589 167.096C154.981 166.408 154.677 165.48 154.677 164.312C154.677 163.288 154.957 162.368 155.517 161.552C156.077 160.72 156.909 160.064 158.013 159.584C159.133 159.104 160.501 158.864 162.117 158.864C163.221 158.864 164.309 158.992 165.381 159.248C166.453 159.488 167.397 159.848 168.213 160.328L166.749 163.856C165.149 162.992 163.597 162.56 162.093 162.56C161.149 162.56 160.461 162.704 160.029 162.992C159.597 163.264 159.381 163.624 159.381 164.072C159.381 164.52 159.637 164.856 160.149 165.08C160.661 165.304 161.485 165.536 162.621 165.776C163.901 166.048 164.957 166.344 165.789 166.664C166.637 166.968 167.365 167.464 167.973 168.152C168.597 168.824 168.909 169.744 168.909 170.912C168.909 171.92 168.629 172.832 168.069 173.648C167.509 174.464 166.669 175.12 165.549 175.616C164.429 176.096 163.069 176.336 161.469 176.336ZM189.608 159.2V176H184.856V169.448H178.376V176H173.624V159.2H178.376V165.512H184.856V159.2H189.608ZM203.952 176.336C202.176 176.336 200.576 175.96 199.152 175.208C197.744 174.456 196.632 173.416 195.816 172.088C195.016 170.76 194.616 169.264 194.616 167.6C194.616 165.936 195.016 164.44 195.816 163.112C196.632 161.784 197.744 160.744 199.152 159.992C200.576 159.24 202.176 158.864 203.952 158.864C205.728 158.864 207.32 159.24 208.728 159.992C210.152 160.744 211.264 161.784 212.064 163.112C212.88 164.44 213.288 165.936 213.288 167.6C213.288 169.264 212.88 170.76 212.064 172.088C211.264 173.416 210.152 174.456 208.728 175.208C207.32 175.96 205.728 176.336 203.952 176.336ZM203.952 172.4C204.8 172.4 205.568 172.2 206.256 171.8C206.944 171.4 207.488 170.84 207.888 170.12C208.288 169.384 208.488 168.544 208.488 167.6C208.488 166.656 208.288 165.824 207.888 165.104C207.488 164.368 206.944 163.8 206.256 163.4C205.568 163 204.8 162.8 203.952 162.8C203.104 162.8 202.336 163 201.648 163.4C200.96 163.8 200.416 164.368 200.016 165.104C199.616 165.824 199.416 166.656 199.416 167.6C199.416 168.544 199.616 169.384 200.016 170.12C200.416 170.84 200.96 171.4 201.648 171.8C202.336 172.2 203.104 172.4 203.952 172.4ZM225.977 159.2C227.497 159.2 228.817 159.456 229.937 159.968C231.057 160.464 231.921 161.184 232.529 162.128C233.137 163.056 233.441 164.152 233.441 165.416C233.441 166.68 233.137 167.776 232.529 168.704C231.921 169.632 231.057 170.352 229.937 170.864C228.817 171.36 227.497 171.608 225.977 171.608H223.049V176H218.297V159.2H225.977ZM225.689 167.864C226.665 167.864 227.401 167.656 227.897 167.24C228.393 166.808 228.641 166.2 228.641 165.416C228.641 164.632 228.393 164.024 227.897 163.592C227.401 163.16 226.665 162.944 225.689 162.944H223.049V167.864H225.689Z" fill="#4E4E4E"/>
</svg>
